<svg width="56" height="56" viewBox="0 0 56 56" fill="none" xmlns="http://www.w3.org/2000/svg">
<path d="M31 56C17.469 56 6.5 43.464 6.5 28C6.5 12.536 17.469 0 31 0C44.531 0 55.5 12.536 55.5 28C55.5 43.464 44.531 56 31 56Z" fill="#B782EA"/>
<path d="M6.5 28C6.5 13.698 15.885 1.908 28 0.216C27.016 0.079 26.016 0 25 0C11.469 0 0.5 12.536 0.5 28C0.5 43.464 11.469 56 25 56C26.016 56 27.016 55.921 28 55.784C15.885 54.092 6.5 42.302 6.5 28Z" fill="#A561E6"/>
<path d="M31.085 50.524H30.999C30.299 50.524 29.594 50.482 28.904 50.4C28.355 50.334 27.964 49.837 28.029 49.288C28.095 48.739 28.596 48.356 29.141 48.414C29.753 48.487 30.378 48.524 30.999 48.524C31.552 48.524 32.042 48.972 32.042 49.524C32.042 50.076 31.639 50.524 31.085 50.524ZM36.9 49.447C36.496 49.447 36.115 49.2 35.964 48.799C35.769 48.282 36.03 47.705 36.547 47.511C37.123 47.294 37.698 47.039 38.253 46.754C38.745 46.5 39.347 46.695 39.6 47.187C39.852 47.678 39.658 48.281 39.166 48.533C38.543 48.853 37.9 49.137 37.252 49.382C37.137 49.426 37.018 49.447 36.9 49.447ZM23.365 48.683C23.213 48.683 23.058 48.648 22.913 48.574C22.298 48.261 21.689 47.91 21.104 47.526C20.642 47.224 20.513 46.605 20.815 46.142C21.119 45.681 21.737 45.551 22.2 45.853C22.723 46.196 23.268 46.512 23.818 46.791C24.31 47.041 24.507 47.643 24.257 48.135C24.081 48.483 23.729 48.683 23.365 48.683ZM43.475 45.125C43.221 45.125 42.966 45.028 42.771 44.835C42.379 44.446 42.376 43.813 42.765 43.421C43.2 42.983 43.623 42.511 44.022 42.019C44.371 41.591 45.001 41.526 45.429 41.874C45.857 42.222 45.923 42.852 45.574 43.281C45.133 43.823 44.666 44.344 44.185 44.829C43.989 45.026 43.731 45.125 43.475 45.125ZM17.257 43.717C16.968 43.717 16.681 43.592 16.483 43.352C16.049 42.822 15.632 42.262 15.245 41.687C14.936 41.229 15.057 40.607 15.515 40.298C15.972 39.989 16.594 40.109 16.903 40.568C17.256 41.092 17.635 41.602 18.03 42.083C18.38 42.51 18.318 43.14 17.891 43.491C17.706 43.643 17.48 43.717 17.257 43.717ZM47.871 38.58C47.737 38.58 47.602 38.553 47.472 38.497C46.965 38.276 46.734 37.687 46.954 37.18C47.205 36.606 47.434 36.01 47.635 35.411C47.811 34.889 48.378 34.606 48.902 34.782C49.425 34.959 49.707 35.525 49.531 36.049C49.311 36.702 49.061 37.352 48.788 37.979C48.623 38.355 48.255 38.58 47.871 38.58ZM13.445 36.813C13.029 36.813 12.64 36.55 12.498 36.135C12.277 35.487 12.081 34.82 11.915 34.152C11.781 33.616 12.107 33.074 12.643 32.941C13.177 32.805 13.722 33.133 13.855 33.669C14.008 34.282 14.188 34.895 14.391 35.489C14.569 36.012 14.29 36.58 13.768 36.758C13.662 36.795 13.552 36.813 13.445 36.813ZM49.76 30.916C49.734 30.916 49.708 30.915 49.682 30.913C49.131 30.87 48.72 30.389 48.762 29.838C48.809 29.232 48.833 28.613 48.833 28C48.833 27.448 49.281 26.968 49.833 26.968C50.385 26.968 50.833 27.383 50.833 27.935V28C50.833 28.665 50.807 29.335 50.756 29.993C50.716 30.517 50.277 30.916 49.76 30.916ZM12.166 29.011C11.614 29.011 11.166 28.574 11.166 28.022V28C11.166 27.318 11.193 26.632 11.246 25.963C11.29 25.413 11.769 25.005 12.322 25.045C12.873 25.089 13.284 25.571 13.24 26.121C13.191 26.739 13.166 27.371 13.166 28C13.166 28.552 12.718 29.011 12.166 29.011ZM49.102 23.048C48.655 23.048 48.248 22.746 48.134 22.293C47.979 21.678 47.798 21.066 47.594 20.472C47.415 19.95 47.694 19.381 48.216 19.202C48.739 19.021 49.308 19.301 49.486 19.824C49.708 20.47 49.905 21.136 50.073 21.803C50.208 22.339 49.883 22.882 49.348 23.017C49.267 23.039 49.185 23.048 49.102 23.048ZM13.432 21.231C13.325 21.231 13.217 21.213 13.11 21.177C12.587 21 12.307 20.432 12.484 19.909C12.705 19.259 12.956 18.61 13.231 17.981C13.453 17.474 14.041 17.245 14.548 17.465C15.054 17.686 15.285 18.276 15.064 18.782C14.811 19.359 14.581 19.955 14.379 20.551C14.236 20.968 13.849 21.231 13.432 21.231ZM45.902 15.838C45.581 15.838 45.267 15.684 45.073 15.398C44.719 14.876 44.339 14.367 43.943 13.886C43.592 13.46 43.653 12.829 44.079 12.478C44.505 12.127 45.136 12.188 45.487 12.614C45.922 13.143 46.34 13.702 46.729 14.277C47.039 14.734 46.919 15.356 46.462 15.666C46.29 15.782 46.096 15.838 45.902 15.838ZM17.228 14.317C17.006 14.317 16.782 14.243 16.596 14.091C16.168 13.742 16.105 13.112 16.455 12.684C16.896 12.144 17.364 11.624 17.846 11.139C18.236 10.749 18.869 10.746 19.26 11.135C19.652 11.525 19.654 12.157 19.265 12.549C18.829 12.988 18.404 13.459 18.003 13.95C17.807 14.192 17.519 14.317 17.228 14.317ZM40.31 10.287C40.123 10.287 39.934 10.235 39.766 10.125C39.243 9.78401 38.697 9.47001 38.144 9.19101C37.652 8.94201 37.454 8.34101 37.703 7.84801C37.952 7.35701 38.552 7.15601 39.046 7.40601C39.664 7.71701 40.273 8.06801 40.857 8.44901C41.32 8.75101 41.451 9.37101 41.149 9.83301C40.957 10.128 40.638 10.287 40.31 10.287ZM23.329 9.33701C22.965 9.33701 22.614 9.13801 22.437 8.79101C22.186 8.29901 22.382 7.69701 22.874 7.44601C23.497 7.12901 24.141 6.84401 24.79 6.60201C25.306 6.40801 25.883 6.67001 26.077 7.18801C26.27 7.70501 26.008 8.28101 25.49 8.47501C24.912 8.69101 24.337 8.94401 23.781 9.22801C23.637 9.30201 23.481 9.33701 23.329 9.33701ZM32.935 7.58801C32.896 7.58801 32.857 7.58601 32.818 7.58101C32.216 7.51101 31.604 7.47601 30.999 7.47601C30.447 7.47601 29.978 7.02801 29.978 6.47601C29.978 5.92401 30.405 5.47601 30.957 5.47601H30.999C31.681 5.47601 32.371 5.51601 33.049 5.59501C33.597 5.65801 33.991 6.15401 33.927 6.70301C33.869 7.21301 33.435 7.58801 32.935 7.58801Z" fill="#A561E6"/>
<path d="M6.498 29H0.5C0.52 29.673 0.558 30.34 0.619 31H6.622C6.56 30.34 6.519 29.673 6.498 29Z" fill="#7739B0"/>
<path d="M6.727 24H0.730997C0.647997 24.659 0.587997 25.327 0.546997 26H6.546C6.588 25.327 6.644 24.659 6.727 24Z" fill="#7739B0"/>
<path d="M7.048 34H1.047C1.177 34.676 1.327 35.343 1.498 36H7.497C7.327 35.343 7.178 34.676 7.048 34Z" fill="#7739B0"/>
<path d="M8.44699 39H2.44299C2.69799 39.682 2.97999 40.347 3.27999 41H9.28099C8.98099 40.348 8.70199 39.681 8.44699 39Z" fill="#7739B0"/>
<path d="M7.772 19H1.779C1.584 19.657 1.402 20.322 1.25 21H7.257C7.409 20.324 7.578 19.655 7.772 19Z" fill="#7739B0"/>
<path d="M9.764 14H3.764C3.434 14.651 3.123 15.317 2.839 16H8.84301C9.12701 15.318 9.434 14.651 9.764 14Z" fill="#7739B0"/>
<path d="M13.845 8H7.838C7.269 8.636 6.728 9.303 6.216 10H12.221C12.734 9.303 13.276 8.636 13.845 8Z" fill="#7739B0"/>
<path d="M19.96 3H13.947C12.925 3.59 11.945 4.258 11.011 5H17.02C17.955 4.258 18.937 3.59 19.96 3Z" fill="#7739B0"/>
<path d="M11.519 45H5.51601C5.98001 45.693 6.47001 46.36 6.98801 47H12.995C12.477 46.36 11.984 45.693 11.519 45Z" fill="#7739B0"/>
<path d="M9.832 50C10.635 50.723 11.476 51.394 12.356 52H18.37C17.486 51.393 16.636 50.726 15.83 50H9.832Z" fill="#7739B0"/>
</svg>
