<svg width="119" height="37" viewBox="0 0 119 37" fill="none" xmlns="http://www.w3.org/2000/svg">
<circle cx="60.5" cy="18.5" r="17" stroke="#F3E5BB" stroke-width="3"/>
<circle cx="60.5" cy="18.5" r="11" stroke="#F2C94C" stroke-width="3"/>
<path d="M8.04 25.3C6 25.3 4.28 24.62 2.88 23.26C1.48 21.9 0.78 20.12 0.78 17.92C0.78 15.7333 1.48667 13.9533 2.9 12.58C4.32667 11.2067 6.02667 10.52 8 10.52C9.81333 10.52 11.2667 10.98 12.36 11.9C13.4667 12.82 14.18 13.9267 14.5 15.22L11.9 16.04C11.7 15.24 11.28 14.5667 10.64 14.02C10 13.46 9.12 13.18 8 13.18C6.84 13.18 5.82 13.5933 4.94 14.42C4.07333 15.2467 3.64 16.4133 3.64 17.92C3.64 19.36 4.06667 20.5 4.92 21.34C5.78667 22.18 6.82667 22.6 8.04 22.6C9.14667 22.6 10.0267 22.3133 10.68 21.74C11.3467 21.1667 11.7933 20.4867 12.02 19.7L14.6 20.48C14.4533 21.0533 14.2133 21.6133 13.88 22.16C13.56 22.7067 13.14 23.22 12.62 23.7C12.1 24.18 11.44 24.5667 10.64 24.86C9.85333 25.1533 8.98667 25.3 8.04 25.3ZM22.5177 15.12V17.8C22.251 17.7467 21.9843 17.72 21.7177 17.72C20.9577 17.72 20.3443 17.94 19.8777 18.38C19.411 18.8067 19.1777 19.5133 19.1777 20.5V25H16.5177V15.16H19.0977V16.62C19.5777 15.5933 20.511 15.08 21.8977 15.08C22.0443 15.08 22.251 15.0933 22.5177 15.12ZM28.2184 28.88H25.3984L27.7184 23.76L23.5384 15.16H26.5184L29.1384 20.92L31.5584 15.16H34.3984L28.2184 28.88ZM38.6698 28.8H36.0098V15.16H38.5898V16.36C38.8298 15.96 39.2165 15.6267 39.7498 15.36C40.2832 15.08 40.9032 14.94 41.6098 14.94C43.0098 14.94 44.1165 15.42 44.9298 16.38C45.7432 17.3267 46.1498 18.5533 46.1498 20.06C46.1498 21.5667 45.7165 22.8067 44.8498 23.78C43.9965 24.7533 42.8832 25.24 41.5098 25.24C40.2032 25.24 39.2565 24.84 38.6698 24.04V28.8ZM42.8298 22.12C43.2965 21.6133 43.5298 20.9333 43.5298 20.08C43.5298 19.2267 43.2965 18.5533 42.8298 18.06C42.3765 17.5667 41.7965 17.32 41.0898 17.32C40.3832 17.32 39.7965 17.5733 39.3298 18.08C38.8632 18.5733 38.6298 19.24 38.6298 20.08C38.6298 20.92 38.8632 21.5933 39.3298 22.1C39.7965 22.6067 40.3832 22.86 41.0898 22.86C41.7965 22.86 42.3765 22.6133 42.8298 22.12ZM51.4969 12.22V15.16H53.4769V17.52H51.4969V21.64C51.4969 22.0533 51.5902 22.3467 51.7769 22.52C51.9635 22.6933 52.2569 22.78 52.6569 22.78C53.0169 22.78 53.2902 22.7533 53.4769 22.7V24.9C53.0902 25.06 52.5902 25.14 51.9769 25.14C51.0169 25.14 50.2569 24.8733 49.6969 24.34C49.1369 23.7933 48.8569 23.0467 48.8569 22.1V17.52H47.0769V15.16H47.5769C48.0702 15.16 48.4435 15.02 48.6969 14.74C48.9635 14.4467 49.0969 14.0667 49.0969 13.6V12.22H51.4969ZM58.2788 22.14C58.7721 22.6333 59.3654 22.88 60.0588 22.88C60.7521 22.88 61.3388 22.6333 61.8188 22.14C62.3121 21.6467 62.5588 20.96 62.5588 20.08C62.5588 19.2 62.3121 18.5133 61.8188 18.02C61.3388 17.5267 60.7521 17.28 60.0588 17.28C59.3654 17.28 58.7721 17.5267 58.2788 18.02C57.7988 18.5133 57.5588 19.2 57.5588 20.08C57.5588 20.96 57.7988 21.6467 58.2788 22.14ZM56.3588 16.34C57.3454 15.3533 58.5788 14.86 60.0588 14.86C61.5388 14.86 62.7654 15.3533 63.7388 16.34C64.7254 17.3267 65.2188 18.5733 65.2188 20.08C65.2188 21.5867 64.7254 22.8333 63.7388 23.82C62.7654 24.8067 61.5388 25.3 60.0588 25.3C58.5788 25.3 57.3454 24.8067 56.3588 23.82C55.3854 22.8333 54.8988 21.5867 54.8988 20.08C54.8988 18.5733 55.3854 17.3267 56.3588 16.34ZM80.8184 20.62L83.3784 10.82H86.1984L82.2784 25H79.4384L76.1984 14.9L72.9584 25H70.0784L66.1384 10.82H69.0584L71.6584 20.58L74.7984 10.82H77.6584L80.8184 20.62ZM86.6598 22.32C86.6598 21.48 86.9332 20.8067 87.4798 20.3C88.0265 19.7933 88.7332 19.4733 89.5998 19.34L92.0198 18.98C92.5132 18.9133 92.7598 18.68 92.7598 18.28C92.7598 17.9067 92.6132 17.6 92.3198 17.36C92.0398 17.12 91.6332 17 91.0998 17C90.5398 17 90.0932 17.1533 89.7598 17.46C89.4398 17.7667 89.2598 18.1467 89.2198 18.6L86.8598 18.1C86.9532 17.2467 87.3732 16.4933 88.1198 15.84C88.8665 15.1867 89.8532 14.86 91.0798 14.86C92.5465 14.86 93.6265 15.2133 94.3198 15.92C95.0132 16.6133 95.3598 17.5067 95.3598 18.6V23.44C95.3598 24.0267 95.3998 24.5467 95.4798 25H93.0398C92.9732 24.7067 92.9398 24.3133 92.9398 23.82C92.3132 24.7933 91.3465 25.28 90.0398 25.28C89.0265 25.28 88.2065 24.9867 87.5798 24.4C86.9665 23.8133 86.6598 23.12 86.6598 22.32ZM90.5998 23.3C91.2265 23.3 91.7398 23.1267 92.1398 22.78C92.5532 22.42 92.7598 21.8333 92.7598 21.02V20.58L90.5398 20.92C89.7265 21.04 89.3198 21.4533 89.3198 22.16C89.3198 22.48 89.4332 22.7533 89.6598 22.98C89.8865 23.1933 90.1998 23.3 90.5998 23.3ZM107.145 15.16L103.325 25H100.665L96.6453 15.16H99.5653L102.005 21.76L104.345 15.16H107.145ZM110.411 18.96H114.811C114.784 18.4133 114.584 17.9533 114.211 17.58C113.851 17.2067 113.317 17.02 112.611 17.02C111.971 17.02 111.451 17.22 111.051 17.62C110.651 18.02 110.437 18.4667 110.411 18.96ZM115.071 21.52L117.291 22.18C117.024 23.0867 116.497 23.8333 115.711 24.42C114.937 25.0067 113.971 25.3 112.811 25.3C111.397 25.3 110.197 24.8267 109.211 23.88C108.224 22.92 107.731 21.64 107.731 20.04C107.731 18.52 108.211 17.28 109.171 16.32C110.131 15.3467 111.264 14.86 112.571 14.86C114.091 14.86 115.277 15.3133 116.131 16.22C116.997 17.1267 117.431 18.3733 117.431 19.96C117.431 20.0667 117.424 20.1867 117.411 20.32C117.411 20.4533 117.411 20.56 117.411 20.64L117.391 20.78H110.351C110.377 21.42 110.631 21.9533 111.111 22.38C111.591 22.8067 112.164 23.02 112.831 23.02C113.964 23.02 114.711 22.52 115.071 21.52Z" fill="#9B51E0"/>
</svg>
