<svg width="24" height="24" viewBox="0 0 24 24" fill="none" xmlns="http://www.w3.org/2000/svg">
<path d="M6.75 13.3125C6.75 13.6606 6.88828 13.9944 7.13442 14.2406C7.38056 14.4867 7.7144 14.625 8.0625 14.625C8.4106 14.625 8.74444 14.4867 8.99058 14.2406C9.23672 13.9944 9.375 13.6606 9.375 13.3125C9.375 12.9644 9.23672 12.6306 8.99058 12.3844C8.74444 12.1383 8.4106 12 8.0625 12C7.7144 12 7.38056 12.1383 7.13442 12.3844C6.88828 12.6306 6.75 12.9644 6.75 13.3125ZM14.6883 16.118C14.1469 16.5445 13.0734 17.0039 12 17.0039C10.9266 17.0039 9.85312 16.5445 9.31172 16.118C8.97422 15.8531 8.48438 15.9094 8.21719 16.2469C7.95 16.5844 8.00859 17.0742 8.34609 17.3414C9.28828 18.0844 10.7227 18.5625 12 18.5625C13.2773 18.5625 14.7117 18.0844 15.6539 17.3414C15.8161 17.2134 15.9209 17.0261 15.945 16.8208C15.9692 16.6156 15.9109 16.4091 15.7828 16.2469C15.6548 16.0846 15.4675 15.9799 15.2622 15.9557C15.057 15.9316 14.8505 15.9899 14.6883 16.118ZM22.5 10.6875C22.5 9.23672 21.3258 8.0625 19.875 8.0625C18.8883 8.0625 18.0305 8.60625 17.5805 9.4125C16.2305 8.67422 14.5875 8.19844 12.7969 8.08828L14.3648 4.57031L17.3625 5.43516C17.632 6.19922 18.3609 6.75 19.2188 6.75C20.3062 6.75 21.1875 5.86875 21.1875 4.78125C21.1875 3.69375 20.3062 2.8125 19.2188 2.8125C18.4688 2.8125 17.8172 3.23203 17.4844 3.84844L14.1445 2.88281C13.9638 2.83033 13.7702 2.84509 13.5996 2.92438C13.429 3.00367 13.2928 3.14211 13.2164 3.31406L11.0883 8.09297C9.34219 8.21484 7.73906 8.68828 6.41953 9.41016C6.19198 9.00133 5.85925 8.66079 5.4558 8.42384C5.05236 8.18688 4.59288 8.06213 4.125 8.0625C2.67422 8.0625 1.5 9.23672 1.5 10.6875C1.5 11.7609 2.14453 12.682 3.06563 13.0898C2.89922 13.582 2.8125 14.0977 2.8125 14.625C2.8125 18.2484 6.92578 21.1875 12 21.1875C17.0742 21.1875 21.1875 18.2484 21.1875 14.625C21.1875 14.0953 21.0984 13.582 20.9344 13.0898C21.8555 12.682 22.5 11.7609 22.5 10.6875ZM19.2188 4.04297C19.3157 4.04297 19.4117 4.06207 19.5013 4.09917C19.5908 4.13627 19.6722 4.19065 19.7408 4.25921C19.8093 4.32776 19.8637 4.40915 19.9008 4.49872C19.9379 4.58829 19.957 4.6843 19.957 4.78125C19.957 4.8782 19.9379 4.97421 19.9008 5.06378C19.8637 5.15335 19.8093 5.23474 19.7408 5.30329C19.6722 5.37185 19.5908 5.42623 19.5013 5.46333C19.4117 5.50044 19.3157 5.51953 19.2188 5.51953C19.0229 5.51953 18.8352 5.44175 18.6967 5.30329C18.5583 5.16484 18.4805 4.97705 18.4805 4.78125C18.4805 4.58545 18.5583 4.39766 18.6967 4.25921C18.8352 4.12075 19.0229 4.04297 19.2188 4.04297ZM2.8125 10.6875C2.8125 9.96328 3.40078 9.375 4.125 9.375C4.37364 9.37519 4.61711 9.44601 4.82706 9.5792C5.03702 9.7124 5.20482 9.90249 5.31094 10.1273C4.62422 10.6477 4.05703 11.2477 3.63516 11.9062C3.39246 11.8078 3.18458 11.6393 3.03806 11.4223C2.89153 11.2052 2.81301 10.9494 2.8125 10.6875ZM12 19.6289C7.78594 19.6289 4.37109 17.3883 4.37109 14.625C4.37109 11.8617 7.78594 9.62109 12 9.62109C16.2141 9.62109 19.6289 11.8617 19.6289 14.625C19.6289 17.3883 16.2141 19.6289 12 19.6289ZM20.3625 11.9062C19.943 11.2477 19.3734 10.6477 18.6867 10.1273C18.8977 9.68438 19.35 9.375 19.8727 9.375C20.5969 9.375 21.1852 9.96328 21.1852 10.6875C21.1875 11.2383 20.8453 11.7117 20.3625 11.9062ZM14.625 13.3125C14.625 13.6606 14.7633 13.9944 15.0094 14.2406C15.2556 14.4867 15.5894 14.625 15.9375 14.625C16.2856 14.625 16.6194 14.4867 16.8656 14.2406C17.1117 13.9944 17.25 13.6606 17.25 13.3125C17.25 12.9644 17.1117 12.6306 16.8656 12.3844C16.6194 12.1383 16.2856 12 15.9375 12C15.5894 12 15.2556 12.1383 15.0094 12.3844C14.7633 12.6306 14.625 12.9644 14.625 13.3125Z" fill="#9B51E0"/>
</svg>
